<svg width="40" height="40" viewBox="0 0 40 40" fill="none" xmlns="http://www.w3.org/2000/svg">
<rect width="40" height="40" fill="#D9D9D9"/>
<circle cx="20" cy="11" r="5.8" fill="#585858" stroke="black" stroke-width="0.4"/>
<mask id="path-3-inside-1_3_7" fill="white">
<path d="M13 23C13 19.134 16.134 16 20 16V16C23.866 16 27 19.134 27 23V35H13V23Z"/>
</mask>
<path d="M13 23C13 19.134 16.134 16 20 16V16C23.866 16 27 19.134 27 23V35H13V23Z" fill="#585858"/>
<path d="M13 16H27H13ZM27.4 35.4H12.6L13.4 34.6H26.6L27.4 35.4ZM12.6 35.4V23.4C12.6 19.3131 15.9131 16 20 16H20C16.3549 16 13.4 19.134 13.4 23V34.6L12.6 35.4ZM20 16C24.0869 16 27.4 19.3131 27.4 23.4V35.4L26.6 34.6V23C26.6 19.134 23.6451 16 20 16H20Z" fill="black" mask="url(#path-3-inside-1_3_7)"/>
</svg>
